ffmpeg started on 2016-12-07 at 14:41:13
Report written to "Output/x264/results/ffmpeg/sintelslow11000k.log"
Command line:
Tools/ffmpeg/ffmpeg -benchmark -y -i Input/y4m/sintel.y4m -c:v libx264 -preset slow -b:v 11000k -an Output/x264/encoded/sintelslow11000k.mkv
ffmpeg version N-82227-gdb23fde Copyright (c) 2000-2016 the FFmpeg developers
  built with gcc 5.4.0 (Ubuntu 5.4.0-6ubuntu1~16.04.2) 20160609
  configuration: --prefix=/home/jaroslav/ffmpeg_build --pkg-config-flags=--static --extra-cflags=-I/home/jaroslav/ffmpeg_build/include --extra-ldflags=-L/home/jaroslav/ffmpeg_build/lib --bindir=/home/jaroslav/bin --enable-gpl --enable-libass --enable-libfdk-aac --enable-libfreetype --enable-libmp3lame --enable-libopus --enable-libtheora --enable-libvorbis --enable-libvpx --enable-libx264 --enable-libx265 --enable-nvenc --enable-libmfx --enable-libxvid --enable-libgsm --enable-libopencore-amrnb --enable-version3 --enable-nonfree
  libavutil      55. 35.100 / 55. 35.100
  libavcodec     57. 66.101 / 57. 66.101
  libavformat    57. 57.100 / 57. 57.100
  libavdevice    57.  2.100 / 57.  2.100
  libavfilter     6. 66.100 /  6. 66.100
  libswscale      4.  3.100 /  4.  3.100
  libswresample   2.  4.100 /  2.  4.100
  libpostproc    54.  2.100 / 54.  2.100
Input #0, yuv4mpegpipe, from 'Input/y4m/sintel.y4m':
  Duration: 00:00:20.83, start: 0.000000, bitrate: 2057307 kb/s
    Stream #0:0: Video: rawvideo (I420 / 0x30323449), yuv420p(progressive), 4096x1744, SAR 1:1 DAR 256:109, 24 fps, 24 tbr, 24 tbn, 24 tbc
[libx264 @ 0x31e01c0] using SAR=1/1
[libx264 @ 0x31e01c0] using cpu capabilities: MMX2 SSE2Fast SSSE3 SSE4.2 AVX FMA3 AVX2 LZCNT BMI2
[libx264 @ 0x31e01c0] profile High, level 5.1
[libx264 @ 0x31e01c0] 264 - core 148 - H.264/MPEG-4 AVC codec - Copyleft 2003-2016 - http://www.videolan.org/x264.html - options: cabac=1 ref=5 deblock=1:0:0 analyse=0x3:0x113 me=hex subme=8 psy=1 psy_rd=1.00:0.00 mixed_ref=1 me_range=16 chroma_me=1 trellis=2 8x8dct=1 cqm=0 deadzone=21,11 fast_pskip=1 chroma_qp_offset=-2 threads=6 lookahead_threads=1 sliced_threads=0 nr=0 decimate=1 interlaced=0 bluray_compat=0 constrained_intra=0 bframes=3 b_pyramid=2 b_adapt=1 b_bias=0 direct=3 weightb=1 open_gop=0 weightp=2 keyint=250 keyint_min=24 scenecut=40 intra_refresh=0 rc_lookahead=50 rc=abr mbtree=1 bitrate=11000 ratetol=1.0 qcomp=0.60 qpmin=0 qpmax=69 qpstep=4 ip_ratio=1.40 aq=1:1.00
Output #0, matroska, to 'Output/x264/encoded/sintelslow11000k.mkv':
  Metadata:
    encoder         : Lavf57.57.100
    Stream #0:0: Video: h264 (libx264) (H264 / 0x34363248), yuv420p, 4096x1744 [SAR 1:1 DAR 256:109], q=-1--1, 11000 kb/s, 24 fps, 1k tbn, 24 tbc
    Metadata:
      encoder         : Lavc57.66.101 libx264
    Side data:
      cpb: bitrate max/min/avg: 0/0/11000000 buffer size: 0 vbv_delay: -1
Stream mapping:
  Stream #0:0 -> #0:0 (rawvideo (native) -> h264 (libx264))
Press [q] to stop, [?] for help
frame=    9 fps=0.0 q=0.0 size=       0kB time=00:00:00.00 bitrate=N/A speed=   0x    frame=   18 fps= 17 q=0.0 size=       0kB time=00:00:00.00 bitrate=N/A speed=   0x    frame=   27 fps= 17 q=0.0 size=       0kB time=00:00:00.00 bitrate=N/A speed=   0x    frame=   36 fps= 17 q=0.0 size=       0kB time=00:00:00.00 bitrate=N/A speed=   0x    frame=   41 fps= 15 q=0.0 size=       0kB time=00:00:00.00 bitrate=N/A speed=   0x    frame=   50 fps= 16 q=0.0 size=       0kB time=00:00:00.00 bitrate=N/A speed=   0x    frame=   57 fps=8.9 q=0.0 size=       0kB time=00:00:00.00 bitrate=N/A speed=   0x    frame=   58 fps=5.3 q=0.0 size=       0kB time=00:00:00.00 bitrate=N/A speed=   0x    frame=   59 fps=5.0 q=0.0 size=       0kB time=00:00:00.00 bitrate=N/A speed=   0x    frame=   63 fps=5.1 q=24.0 size=       1kB time=00:00:00.00 bitrate=5872.0kbits/s speed=8.1e-05x    frame=   64 fps=4.9 q=33.0 size=       1kB time=00:00:00.04 bitrate= 136.6kbits/s speed=0.00328x    frame=   67 fps=4.7 q=41.0 size=       1kB time=00:00:00.16 bitrate=  35.0kbits/s speed=0.0118x    frame=   70 fps=4.7 q=42.0 size=       1kB time=00:00:00.29 bitrate=  20.0kbits/s speed=0.0198x    frame=   74 fps=4.8 q=41.0 size=       1kB time=00:00:00.45 bitrate=  12.8kbits/s speed=0.0299x    frame=   77 fps=4.8 q=41.0 size=       1kB time=00:00:00.58 bitrate=  10.1kbits/s speed=0.0365x    frame=   80 fps=4.8 q=41.0 size=       1kB time=00:00:00.70 bitrate=   8.3kbits/s speed=0.0428x    frame=   83 fps=4.9 q=41.0 size=       1kB time=00:00:00.83 bitrate=   7.0kbits/s speed=0.0488x    frame=   85 fps=4.8 q=40.0 size=       1kB time=00:00:00.91 bitrate=   6.4kbits/s speed=0.0519x    frame=   91 fps=4.9 q=39.0 size=       1kB time=00:00:01.16 bitrate=   5.0kbits/s speed=0.0625x    frame=   95 fps=4.9 q=39.0 size=       1kB time=00:00:01.33 bitrate=   4.4kbits/s speed=0.0691x    frame=   98 fps=4.9 q=39.0 size=       1kB time=00:00:01.45 bitrate=   4.0kbits/s speed=0.0734x    frame=  100 fps=4.9 q=39.0 size=       1kB time=00:00:01.54 bitrate=   3.8kbits/s speed=0.0756x    frame=  103 fps=4.9 q=38.0 size=       1kB time=00:00:01.66 bitrate=   3.5kbits/s speed=0.0794x    frame=  107 fps=5.0 q=38.0 size=       1kB time=00:00:01.83 bitrate=   3.2kbits/s speed=0.0849x    frame=  110 fps=4.9 q=38.0 size=       1kB time=00:00:01.95 bitrate=   3.0kbits/s speed=0.0876x    frame=  113 fps=4.9 q=37.0 size=       1kB time=00:00:02.08 bitrate=   2.8kbits/s speed=0.0911x    frame=  115 fps=4.9 q=37.0 size=       1kB time=00:00:02.16 bitrate=   2.7kbits/s speed=0.0921x    frame=  118 fps=4.9 q=37.0 size=       1kB time=00:00:02.29 bitrate=   2.6kbits/s speed=0.095x    frame=  121 fps=4.9 q=37.0 size=       1kB time=00:00:02.41 bitrate=   2.4kbits/s speed=0.097x    frame=  124 fps=4.9 q=37.0 size=       1kB time=00:00:02.54 bitrate=   2.3kbits/s speed=0.0995x    frame=  126 fps=4.8 q=37.0 size=       1kB time=00:00:02.62 bitrate=   2.2kbits/s speed=0.101x    frame=  128 fps=4.8 q=37.0 size=       1kB time=00:00:02.70 bitrate=   2.2kbits/s speed=0.102x    frame=  131 fps=4.8 q=37.0 size=       1kB time=00:00:02.83 bitrate=   2.1kbits/s speed=0.104x    frame=  134 fps=4.8 q=37.0 size=       1kB time=00:00:02.95 bitrate=   2.0kbits/s speed=0.105x    frame=  137 fps=4.8 q=36.0 size=       1kB time=00:00:03.08 bitrate=   1.9kbits/s speed=0.108x    frame=  140 fps=4.8 q=36.0 size=    5151kB time=00:00:03.20 bitrate=13149.4kbits/s speed=0.11x    frame=  142 fps=4.8 q=36.0 size=    5151kB time=00:00:03.29 bitrate=12813.9kbits/s speed=0.11x    frame=  145 fps=4.8 q=36.0 size=    5151kB time=00:00:03.41 bitrate=12345.3kbits/s speed=0.112x    frame=  148 fps=4.8 q=36.0 size=    5151kB time=00:00:03.54 bitrate=11909.8kbits/s speed=0.114x    frame=  150 fps=4.7 q=36.0 size=    5151kB time=00:00:03.62 bitrate=11637.2kbits/s speed=0.114x    frame=  153 fps=4.7 q=36.0 size=    5151kB time=00:00:03.75 bitrate=11249.4kbits/s speed=0.116x    frame=  156 fps=4.7 q=36.0 size=    5151kB time=00:00:03.87 bitrate=10886.6kbits/s speed=0.118x    frame=  162 fps=4.8 q=35.0 size=    5858kB time=00:00:04.12 bitrate=11631.2kbits/s speed=0.122x    frame=  163 fps=4.8 q=35.0 size=    5858kB time=00:00:04.16 bitrate=11514.0kbits/s speed=0.122x    frame=  169 fps=4.9 q=35.0 size=    5858kB time=00:00:04.41 bitrate=10862.5kbits/s speed=0.127x    frame=  171 fps=4.8 q=33.0 size=    5858kB time=00:00:04.50 bitrate=10662.2kbits/s speed=0.127x    frame=  173 fps=4.8 q=35.0 size=    5858kB time=00:00:04.58 bitrate=10469.1kbits/s speed=0.128x    frame=  178 fps=4.9 q=35.0 size=    5858kB time=00:00:04.79 bitrate=10012.6kbits/s speed=0.131x    frame=  181 fps=4.8 q=35.0 size=    5858kB time=00:00:04.91 bitrate=9758.1kbits/s speed=0.131x    frame=  185 fps=4.9 q=35.0 size=    5858kB time=00:00:05.08 bitrate=9439.5kbits/s speed=0.134x    frame=  187 fps=4.9 q=35.0 size=    5858kB time=00:00:05.16 bitrate=9286.1kbits/s speed=0.134x    frame=  189 fps=4.8 q=35.0 size=    5858kB time=00:00:05.25 bitrate=9139.3kbits/s speed=0.134x    frame=  192 fps=4.8 q=35.0 size=    5858kB time=00:00:05.37 bitrate=8926.8kbits/s speed=0.135x    frame=  196 fps=4.8 q=35.0 size=    5858kB time=00:00:05.54 bitrate=8657.9kbits/s speed=0.136x    frame=  199 fps=4.8 q=35.0 size=    5858kB time=00:00:05.66 bitrate=8466.9kbits/s speed=0.138x    frame=  202 fps=4.8 q=34.0 size=    5858kB time=00:00:05.79 bitrate=8284.2kbits/s speed=0.139x    frame=  206 fps=4.8 q=34.0 size=    5858kB time=00:00:05.95 bitrate=8053.4kbits/s speed=0.14x    frame=  210 fps=4.8 q=34.0 size=    5858kB time=00:00:06.12 bitrate=7833.9kbits/s speed=0.141x    frame=  214 fps=4.9 q=34.0 size=    5858kB time=00:00:06.29 bitrate=7626.0kbits/s speed=0.143x    frame=  221 fps=4.9 q=34.0 size=    8641kB time=00:00:06.58 bitrate=10751.4kbits/s speed=0.147x    frame=  223 fps=4.9 q=34.0 size=    8641kB time=00:00:06.66 bitrate=10616.0kbits/s speed=0.147x    frame=  226 fps=4.9 q=34.0 size=    8641kB time=00:00:06.79 bitrate=10420.6kbits/s speed=0.148x    frame=  228 fps=4.9 q=34.0 size=    8641kB time=00:00:06.87 bitrate=10294.9kbits/s speed=0.148x    frame=  232 fps=4.9 q=34.0 size=    8641kB time=00:00:07.04 bitrate=10050.8kbits/s speed=0.149x    frame=  235 fps=4.9 q=34.0 size=    8641kB time=00:00:07.16 bitrate=9875.5kbits/s speed=0.15x    frame=  238 fps=4.9 q=34.0 size=    8641kB time=00:00:07.29 bitrate=9706.2kbits/s speed=0.15x    frame=  240 fps=4.9 q=34.0 size=    8641kB time=00:00:07.37 bitrate=9597.0kbits/s speed=0.15x    frame=  243 fps=4.9 q=34.0 size=    8641kB time=00:00:07.50 bitrate=9437.1kbits/s speed=0.151x    frame=  250 fps=4.9 q=33.0 size=    9873kB time=00:00:07.79 bitrate=10379.0kbits/s speed=0.154x    frame=  255 fps=5.0 q=33.0 size=    9873kB time=00:00:08.00 bitrate=10109.1kbits/s speed=0.157x    frame=  257 fps=4.9 q=33.0 size=    9873kB time=00:00:08.08 bitrate=10005.3kbits/s speed=0.156x    frame=  261 fps=5.0 q=33.0 size=    9873kB time=00:00:08.25 bitrate=9802.8kbits/s speed=0.157x    frame=  263 fps=4.9 q=33.0 size=    9873kB time=00:00:08.33 bitrate=9705.2kbits/s speed=0.157x    frame=  267 fps=5.0 q=33.0 size=    9873kB time=00:00:08.50 bitrate=9514.6kbits/s speed=0.158x    frame=  269 fps=4.9 q=33.0 size=    9873kB time=00:00:08.58 bitrate=9422.6kbits/s speed=0.158x    frame=  274 fps=4.9 q=33.0 size=    9873kB time=00:00:08.79 bitrate=9198.6kbits/s speed=0.159x    frame=  280 fps=5.0 q=33.0 size=    9873kB time=00:00:09.04 bitrate=8944.3kbits/s speed=0.162x    frame=  281 fps=5.0 q=33.0 size=    9873kB time=00:00:09.08 bitrate=8903.9kbits/s speed=0.16x    frame=  288 fps=5.0 q=33.0 size=    9873kB time=00:00:09.37 bitrate=8626.6kbits/s speed=0.164x    frame=  289 fps=5.0 q=33.0 size=    9873kB time=00:00:09.41 bitrate=8588.2kbits/s speed=0.163x    frame=  294 fps=5.0 q=33.0 size=    9873kB time=00:00:09.62 bitrate=8402.6kbits/s speed=0.163x    frame=  300 fps=5.0 q=32.0 size=    9873kB time=00:00:09.87 bitrate=8189.9kbits/s speed=0.166x    frame=  302 fps=5.0 q=32.0 size=    9873kB time=00:00:09.95 bitrate=8121.6kbits/s speed=0.166x    frame=  307 fps=5.0 q=32.0 size=    9873kB time=00:00:10.16 bitrate=7954.7kbits/s speed=0.167x    frame=  312 fps=5.1 q=32.0 size=    9873kB time=00:00:10.37 bitrate=7795.2kbits/s speed=0.169x    frame=  313 fps=5.0 q=32.0 size=    9873kB time=00:00:10.41 bitrate=7763.8kbits/s speed=0.168x    frame=  320 fps=5.1 q=32.0 size=    9873kB time=00:00:10.70 bitrate=7552.8kbits/s speed=0.17x    frame=  322 fps=5.1 q=32.0 size=    9873kB time=00:00:10.79 bitrate=7494.0kbits/s speed=0.17x    frame=  328 fps=5.1 q=32.0 size=   13471kB time=00:00:11.04 bitrate=9993.4kbits/s speed=0.172x    frame=  333 fps=5.1 q=32.0 size=   13471kB time=00:00:11.25 bitrate=9808.7kbits/s speed=0.174x    frame=  337 fps=5.2 q=32.0 size=   13471kB time=00:00:11.41 bitrate=9665.2kbits/s speed=0.175x    frame=  340 fps=5.2 q=32.0 size=   13471kB time=00:00:11.54 bitrate=9560.6kbits/s speed=0.175x    frame=  344 fps=5.2 q=31.0 size=   13471kB time=00:00:11.70 bitrate=9425.0kbits/s speed=0.176x    frame=  350 fps=5.2 q=31.0 size=   13471kB time=00:00:11.95 bitrate=9228.0kbits/s speed=0.178x    frame=  354 fps=5.2 q=31.0 size=   13471kB time=00:00:12.12 bitrate=9100.9kbits/s speed=0.179x    frame=  360 fps=5.2 q=31.0 size=   13471kB time=00:00:12.37 bitrate=8917.1kbits/s speed=0.18x    frame=  368 fps=5.3 q=31.0 size=   13471kB time=00:00:12.70 bitrate=8683.4kbits/s speed=0.183x    frame=  375 fps=5.4 q=30.0 size=   13471kB time=00:00:13.00 bitrate=8488.4kbits/s speed=0.186x    frame=  380 fps=5.4 q=30.0 size=   13471kB time=00:00:13.20 bitrate=8354.7kbits/s speed=0.186x    frame=  384 fps=5.4 q=30.0 size=   13471kB time=00:00:13.37 bitrate=8250.4kbits/s speed=0.187x    frame=  391 fps=5.4 q=30.0 size=   13471kB time=00:00:13.66 bitrate=8074.2kbits/s speed=0.19x    frame=  392 fps=5.4 q=30.0 size=   13471kB time=00:00:13.70 bitrate=8050.0kbits/s speed=0.189x    frame=  400 fps=5.4 q=30.0 size=   13471kB time=00:00:14.04 bitrate=7858.5kbits/s speed=0.191x    frame=  408 fps=5.5 q=29.0 size=   13471kB time=00:00:14.37 bitrate=7676.5kbits/s speed=0.193x    frame=  415 fps=5.5 q=29.0 size=   13471kB time=00:00:14.66 bitrate=7523.7kbits/s speed=0.195x    frame=  420 fps=5.5 q=29.0 size=   13471kB time=00:00:14.87 bitrate=7418.5kbits/s speed=0.196x    frame=  426 fps=5.6 q=29.0 size=   16951kB time=00:00:15.12 bitrate=9180.6kbits/s speed=0.198x    frame=  428 fps=5.6 q=29.0 size=   16951kB time=00:00:15.20 bitrate=9130.5kbits/s speed=0.198x    frame=  432 fps=5.6 q=29.0 size=   16951kB time=00:00:15.37 bitrate=9031.3kbits/s speed=0.198x    frame=  436 fps=5.6 q=29.0 size=   16951kB time=00:00:15.54 bitrate=8934.3kbits/s speed=0.198x    frame=  440 fps=5.6 q=28.0 size=   16951kB time=00:00:15.70 bitrate=8839.9kbits/s speed=0.199x    frame=  445 fps=5.6 q=28.0 size=   16951kB time=00:00:15.91 bitrate=8723.8kbits/s speed= 0.2x    frame=  448 fps=5.6 q=28.0 size=   16951kB time=00:00:16.04 bitrate=8655.9kbits/s speed= 0.2x    frame=  452 fps=5.6 q=28.0 size=   16951kB time=00:00:16.20 bitrate=8567.2kbits/s speed=0.201x    frame=  455 fps=5.6 q=28.0 size=   16951kB time=00:00:16.33 bitrate=8501.7kbits/s speed=0.201x    frame=  461 fps=5.6 q=28.0 size=   16951kB time=00:00:16.58 bitrate=8373.5kbits/s speed= 0.2x    frame=  467 fps=5.5 q=28.0 size=   16951kB time=00:00:16.83 bitrate=8249.1kbits/s speed= 0.2x    frame=  473 fps=5.6 q=28.0 size=   16951kB time=00:00:17.08 bitrate=8128.4kbits/s speed=0.202x    frame=  476 fps=5.6 q=29.0 size=   16951kB time=00:00:17.20 bitrate=8069.4kbits/s speed=0.202x    frame=  484 fps=5.6 q=29.0 size=   20047kB time=00:00:17.54 bitrate=9361.2kbits/s speed=0.203x    frame=  488 fps=5.6 q=29.0 size=   20047kB time=00:00:17.70 bitrate=9273.4kbits/s speed=0.204x    frame=  492 fps=5.6 q=29.0 size=   20047kB time=00:00:17.87 bitrate=9186.8kbits/s speed=0.204x    frame=  498 fps=5.6 q=29.0 size=   20047kB time=00:00:18.12 bitrate=9060.1kbits/s speed=0.205x    frame=  500 fps=5.6 q=29.0 size=   20047kB time=00:00:18.20 bitrate=9018.8kbits/s speed=0.205x    frame=  500 fps=5.2 q=-1.0 Lsize=   24701kB time=00:00:20.70 bitrate=9771.2kbits/s speed=0.216x    
video:24696kB audio:0kB subtitle:0kB other streams:0kB global headers:0kB muxing overhead: 0.019776%
bench: utime=326.884s
bench: maxrss=1821864kB
[libx264 @ 0x31e01c0] frame I:8     Avg QP:23.66  size:181479
[libx264 @ 0x31e01c0] frame P:269   Avg QP:28.77  size: 61860
[libx264 @ 0x31e01c0] frame B:223   Avg QP:27.38  size: 32269
[libx264 @ 0x31e01c0] consecutive B-frames: 37.0%  8.4%  6.6% 48.0%
[libx264 @ 0x31e01c0] mb I  I16..4: 29.3% 66.6%  4.1%
[libx264 @ 0x31e01c0] mb P  I16..4: 23.3% 15.9%  0.3%  P16..4: 28.8%  3.5%  1.5%  0.0%  0.0%    skip:26.6%
[libx264 @ 0x31e01c0] mb B  I16..4:  1.2%  2.2%  0.1%  B16..8: 33.3%  2.9%  0.4%  direct: 1.5%  skip:58.4%  L0:42.3% L1:54.0% BI: 3.8%
[libx264 @ 0x31e01c0] final ratefactor: 25.72
[libx264 @ 0x31e01c0] 8x8 transform intra:43.4% inter:88.9%
[libx264 @ 0x31e01c0] direct mvs  spatial:98.7% temporal:1.3%
[libx264 @ 0x31e01c0] coded y,uvDC,uvAC intra: 15.8% 28.0% 2.5% inter: 6.8% 8.4% 0.1%
[libx264 @ 0x31e01c0] i16 v,h,dc,p: 26% 27%  9% 38%
[libx264 @ 0x31e01c0] i8 v,h,dc,ddl,ddr,vr,hd,vl,hu: 14% 12% 27%  7%  8%  8% 10%  7%  8%
[libx264 @ 0x31e01c0] i4 v,h,dc,ddl,ddr,vr,hd,vl,hu: 14% 15%  8%  7% 15% 11% 15%  6%  9%
[libx264 @ 0x31e01c0] i8c dc,h,v,p: 69% 18% 10%  4%
[libx264 @ 0x31e01c0] Weighted P-Frames: Y:1.1% UV:0.7%
[libx264 @ 0x31e01c0] ref P L0: 66.2% 18.1%  9.1%  3.3%  2.4%  0.8%
[libx264 @ 0x31e01c0] ref B L0: 90.2%  6.9%  2.3%  0.5%
[libx264 @ 0x31e01c0] ref B L1: 97.8%  2.2%
[libx264 @ 0x31e01c0] kb/s:9710.66
